# xmcd
#
# Track frame offsets:
#	150
#	17017
#	36190
#	53205
#	71187
#	87982
#	105890
#	120115
#	131312
#	145795
#	158047
#	172759
#	185377
#	200562
#
# Disc length: 2901
#
# Revision: 2
# Processed by: cddbd v1.5.1PL0 Copyright (c) Steve Scherf et al.
# Submitted via: audiograbber 1.82.02
# Normalized: r1:DSETVAR1
#
DISCID=ac0b530e
DTITLE=Various Artist - Hot Hits Dancin' Country Vol. 4
DYEAR=1996
DGENRE=Country
TTITLE0=Mark Chesnutt - Gonna Get A Life
TTITLE1=Shania Twain - Any Man Of Mine
TTITLE2=Vince Gill - You Better Think Twice
TTITLE3=David Lee Murphy - Dust On The Bottle
TTITLE4=Toby Keith - Big Ol' Truck
TTITLE5=Brooks and Dunn - You're Gonna Miss Me When I'm Gone
TTITLE6=Terri Clark - Better Things To Do
TTITLE7=Alan Jackson - Tall, Tall Trees
TTITLE8=Faith Hill - Let's Go To Vegas
TTITLE9=Lee Roy Pamell - A Little Bit Of You
TTITLE10=Martina McBride - Safe In the Arms Of Love
TTITLE11=Clay Walker - Who Needs You Baby
TTITLE12=George Strait - Check Yes Or No
TTITLE13=Bellamy Brothers - We Dared The Lightning
EXTD=
EXTT0=
EXTT1=
EXTT2=
EXTT3=
EXTT4=
EXTT5=
EXTT6=
EXTT7=
EXTT8=
EXTT9=
EXTT10=
EXTT11=
EXTT12=
EXTT13=
PLAYORDER=
